<?xml version="1.0" encoding="utf-8"?>
<!-- Generated by IcoMoon.io -->
<!DOCTYPE svg PUBLIC "-//W3C//DTD SVG 1.1//EN" "http://www.w3.org/Graphics/SVG/1.1/DTD/svg11.dtd">
<svg version="1.1" xmlns="http://www.w3.org/2000/svg" xmlns:xlink="http://www.w3.org/1999/xlink" width="89" height="32" viewBox="0 0 89 32">
<path d="M17.273 10.379h-7.537c-0.194 0-0.352 0.158-0.352 0.353v3.684c0 0.195 0.158 0.352 0.352 0.352h2.941v4.579c0 0-0.661 0.221-2.484 0.221-2.154 0-5.161-0.789-5.161-7.4 0-6.614 3.131-7.484 6.072-7.484 2.546 0 3.641 0.447 4.34 0.664 0.219 0.069 0.419-0.151 0.419-0.347l0.842-3.56c0-0.091-0.033-0.201-0.133-0.275-0.284-0.2-2.013-1.167-6.379-1.167-5.032 0-10.193 2.14-10.193 12.43 0 10.288 5.908 11.82 10.887 11.82 4.121 0 6.626-1.76 6.626-1.76 0.102-0.056 0.113-0.2 0.113-0.265v-11.493c-0.001-0.194-0.16-0.353-0.352-0.353zM55.387 0.879h-4.24c-0.195 0-0.352 0.158-0.352 0.353v8.2h-6.613v-8.2c0-0.195-0.158-0.353-0.349-0.353h-4.245c-0.191 0-0.346 0.158-0.346 0.353v22.202c0 0.197 0.157 0.354 0.346 0.354h4.245c0.194 0 0.349-0.158 0.349-0.354v-9.495h6.613l-0.015 9.496c0 0.197 0.157 0.352 0.346 0.352h4.246c0.195 0 0.348-0.158 0.348-0.352l0.015-22.204c0.003-0.195-0.155-0.353-0.348-0.353zM22.342 1.382c-1.511 0-2.737 1.237-2.737 2.763s1.226 2.763 2.737 2.763 2.735-1.237 2.735-2.763c0-1.526-1.224-2.763-2.735-2.763zM24.777 8.504c0-0.194-0.157-0.354-0.348-0.354h-4.232c-0.198 0-0.367 0.2-0.367 0.396 0 0 0 12.333 0 14.683 0 0.429 0.268 0.559 0.616 0.559 0 0 1.803 0 3.811 0 0.416 0 0.525-0.204 0.525-0.568-0.003-0.787-0.003-3.869-0.003-4.467-0.003-0.568-0.003-10.249-0.003-10.249zM71.812 8.183h-4.209c-0.192 0-0.346 0.159-0.346 0.354v10.885c0 0-1.070 0.787-2.592 0.787-1.517 0-1.923-0.688-1.923-2.179 0-1.486 0-9.495 0-9.495 0-0.195-0.158-0.355-0.348-0.355h-4.27c-0.195 0-0.349 0.159-0.349 0.355 0 0 0 5.798 0 10.213s2.461 5.497 5.843 5.497c2.777 0 5.019-1.535 5.019-1.535s0.105 0.805 0.158 0.901c0.044 0.096 0.17 0.192 0.308 0.192h2.706c0.192 0 0.349-0.158 0.349-0.354l0.012-14.915c-0.009-0.194-0.166-0.353-0.358-0.353zM83.342 7.682c-2.392 0-4.019 1.067-4.019 1.067v-7.517c0-0.195-0.158-0.353-0.348-0.353h-4.258c-0.191 0-0.348 0.158-0.348 0.353l-0.012 22.204c0 0.197 0.158 0.352 0.351 0.352 0 0 2.962 0 2.965 0 0.132 0 0.231-0.068 0.306-0.186 0.074-0.12 0.179-1.024 0.179-1.024s1.736 1.649 5.032 1.649c3.869 0 6.086-1.963 6.086-8.81 0-6.838-3.543-7.734-5.935-7.734zM81.681 20.195c-1.459-0.044-2.448-0.707-2.448-0.707v-7.033c0 0 0.978-0.6 2.177-0.706 1.517-0.135 2.982 0.323 2.982 3.942-0.007 3.813-0.668 4.566-2.712 4.505zM37.035 20.115c-0.187 0-0.663 0.074-1.152 0.074-1.56 0-2.093-0.727-2.093-1.667 0-0.944 0-6.245 0-6.245h3.185c0.195 0 0.349-0.158 0.349-0.354v-3.421c0.003-0.197-0.154-0.354-0.349-0.354h-3.185l-0.004-4.204c0-0.159-0.084-0.238-0.268-0.238h-4.335c-0.167 0-0.261 0.075-0.261 0.237v4.345c0 0-2.174 0.525-2.321 0.568-0.145 0.041-0.252 0.178-0.252 0.338v2.732c0 0.195 0.158 0.354 0.349 0.354h2.223c0 0 0 2.854 0 6.569 0 4.878 3.424 5.358 5.732 5.358 1.054 0 2.315-0.343 2.526-0.417 0.127-0.044 0.2-0.176 0.2-0.317l0.001-3.003c0-0.197-0.164-0.357-0.348-0.354z"></path>
</svg>
