<svg xmlns="http://www.w3.org/2000/svg" xmlns:xlink="http://www.w3.org/1999/xlink" version="1.1" x="0px" y="0px" viewBox="0 0 24 30" enable-background="new 0 0 24 24" xml:space="preserve"><path d="M21.5,15H17v-4h0.5c0.275,0,0.5-0.225,0.5-0.5S17.775,10,17.5,10h-1.551C15.717,7.919,14.078,6.281,12,6.047V4h3V2h-3h-1v2  v2.047C8.922,6.281,7.284,7.919,7.05,10H5.5C5.225,10,5,10.225,5,10.5S5.225,11,5.5,11H6v4H1.5C1.225,15,1,15.225,1,15.5  S1.225,16,1.5,16H2v6h3v-4c0-0.276,0.224-0.5,0.5-0.5S6,17.724,6,18v4h3v-4c0-0.276,0.224-0.5,0.5-0.5S10,17.724,10,18v4h3v-4  c0-0.276,0.224-0.5,0.5-0.5S14,17.724,14,18v4h3v-4c0-0.276,0.224-0.5,0.5-0.5S18,17.724,18,18v4h3v-6h0.5  c0.275,0,0.5-0.225,0.5-0.5S21.775,15,21.5,15z M7,15l4.5-3l4.5,3H7z"/><text x="0" y="39" fill="#000000" font-size="5px" font-weight="bold" font-family="'Helvetica Neue', Helvetica, Arial-Unicode, Arial, Sans-serif">Created by Rflor</text><text x="0" y="44" fill="#000000" font-size="5px" font-weight="bold" font-family="'Helvetica Neue', Helvetica, Arial-Unicode, Arial, Sans-serif">from the Noun Project</text></svg>