<svg xmlns="http://www.w3.org/2000/svg" xmlns:xlink="http://www.w3.org/1999/xlink" version="1.1" x="0px" y="0px" viewBox="0 0 100 125" enable-background="new 0 0 100 100" xml:space="preserve"><g><path fill="#000000" d="M50,5C25.187,5,5,25.187,5,50s20.187,45,45,45s45-20.187,45-45S74.813,5,50,5z M14.6,60.701v2.411h-1.52   v-2.411H14.6z M13.942,51.734l0.512-2.009h0.895l-0.742,3.245c-0.002,0.01,0,0.02-0.001,0.03c-0.001,0.01-0.006,0.019-0.006,0.029   v7.145h-0.65L13.942,51.734z M16.865,45.464l1.114,0.356c0,0,0,0,0,0l0.001,0l2.983,0.955l-0.139,0.766h-1.851   c-0.008,0-0.014,0.004-0.022,0.004c-0.019,0.002-0.037,0.005-0.055,0.011c-0.015,0.005-0.029,0.009-0.043,0.016   c-0.016,0.008-0.03,0.018-0.044,0.029c-0.013,0.01-0.025,0.02-0.035,0.033c-0.011,0.013-0.019,0.026-0.028,0.041   c-0.009,0.016-0.017,0.031-0.022,0.049c-0.002,0.007-0.007,0.013-0.009,0.02l-0.512,2.212c-0.002,0.01,0,0.019-0.001,0.029   c-0.001,0.01-0.006,0.02-0.006,0.03v2.746h-3.002L16.865,45.464z M19.549,41.782l4.51,2.254v0.443h-2.46   c-0.01,0-0.019,0.005-0.029,0.006c-0.018,0.002-0.035,0.005-0.052,0.01c-0.015,0.005-0.029,0.011-0.043,0.019   c-0.016,0.009-0.031,0.018-0.045,0.03c-0.012,0.01-0.022,0.021-0.032,0.033c-0.011,0.014-0.021,0.028-0.029,0.043   c-0.008,0.015-0.014,0.031-0.019,0.049c-0.003,0.009-0.009,0.017-0.01,0.027l-0.282,1.556l-2.667-0.853L19.549,41.782z    M22.627,36.486l1.432,1.997v4.962l-3.154-1.576L22.627,36.486z M27.145,36.487l1.722,5.383l-3.154,1.576v-4.962L27.145,36.487z    M25.714,44.036l4.51-2.254l1.157,3.617l-2.667,0.853l-0.281-1.556c-0.002-0.01-0.008-0.017-0.01-0.027   c-0.005-0.017-0.011-0.033-0.019-0.049c-0.008-0.015-0.017-0.029-0.028-0.042c-0.01-0.013-0.021-0.024-0.034-0.035   c-0.013-0.011-0.026-0.02-0.041-0.028c-0.015-0.009-0.03-0.015-0.047-0.021c-0.016-0.005-0.031-0.008-0.048-0.01   c-0.011-0.001-0.02-0.006-0.031-0.006h-2.46V44.036z M31.793,45.821C31.793,45.821,31.793,45.821,31.793,45.821l1.114-0.357   l1.67,7.299h-3.002v-2.746c0-0.011-0.005-0.02-0.006-0.03c-0.001-0.01,0.001-0.019-0.001-0.029l-0.512-2.212   c-0.002-0.008-0.007-0.013-0.009-0.02c-0.006-0.017-0.013-0.033-0.022-0.049c-0.008-0.015-0.017-0.029-0.028-0.041   c-0.011-0.012-0.022-0.023-0.035-0.033c-0.014-0.011-0.028-0.021-0.044-0.029c-0.014-0.007-0.028-0.012-0.043-0.017   c-0.018-0.006-0.036-0.009-0.055-0.011c-0.008-0.001-0.014-0.004-0.022-0.004h-1.851l-0.139-0.766L31.793,45.821L31.793,45.821z    M35.319,49.724l0.504,1.944v8.504h-0.65v-7.145c0-0.01-0.005-0.019-0.006-0.029c-0.001-0.01,0.002-0.02-0.001-0.03l-0.742-3.245   H35.319z M21.102,48.07v34.395c-0.41-0.366-0.811-0.742-1.207-1.122V48.07H21.102z M21.82,45.007h0.452v2.535h-0.911L21.82,45.007z    M21.253,48.07h1.019v35.409c-0.346-0.287-0.682-0.585-1.019-0.883V48.07z M22.8,48.07h0.836v36.487   c-0.282-0.215-0.56-0.435-0.836-0.657V48.07z M23.787,48.07h0.836v37.216c-0.28-0.202-0.561-0.402-0.836-0.61V48.07z    M23.727,46.274c0-0.639,0.52-1.159,1.159-1.159s1.159,0.52,1.159,1.159c0,0.639-0.52,1.159-1.159,1.159   S23.727,46.913,23.727,46.274z M25.15,48.07h0.836v38.167c-0.282-0.187-0.559-0.381-0.836-0.575V48.07z M26.137,48.07h0.836v38.8   c-0.281-0.176-0.559-0.354-0.836-0.536V48.07z M27.953,45.007l0.458,2.535h-0.911v-2.535H27.953z M27.501,48.07h1.019v39.723   c-0.34-0.194-0.684-0.383-1.019-0.586V48.07z M28.67,48.07h1.207v40.468c-0.406-0.213-0.809-0.432-1.207-0.658V48.07z    M30.029,48.07h0.561l0.458,1.977v39.09c-0.344-0.167-0.68-0.347-1.019-0.522V48.07z M31.575,63.112v-2.599h3.07v2.599H31.575z    M34.645,60.361h-3.07v-2.788h3.07V60.361z M34.645,57.423h-3.07v-2.788h3.07V57.423z M34.645,54.484h-3.07v-1.193h3.07V54.484z    M31.575,63.64h1.072v26.229c-0.36-0.157-0.717-0.319-1.072-0.485V63.64z M32.798,63.64h1.26v26.812   c-0.422-0.167-0.844-0.335-1.26-0.514V63.64z M34.21,63.64h1.261v27.347c-0.424-0.151-0.843-0.312-1.261-0.475V63.64z    M35.621,63.64h1.072v27.761c-0.36-0.116-0.716-0.238-1.072-0.363V63.64z M36.693,63.112h-1.52v-2.411h1.52V63.112z M26.973,45.007   v2.535H25.2c0.57-0.142,0.996-0.654,0.996-1.268c0-0.613-0.425-1.125-0.995-1.267H26.973z M23.576,46.274   c0,0.613,0.426,1.126,0.996,1.268H22.8v-2.535h1.771C24.001,45.149,23.576,45.661,23.576,46.274z M15.563,63.64v12.877   c-0.434-0.562-0.854-1.134-1.261-1.718V63.64H15.563z M18.197,57.423h-3.069v-2.788h3.069V57.423z M15.128,57.574h3.069v2.788   h-3.069V57.574z M18.197,54.484h-3.069v-1.193h3.069V54.484z M15.714,63.64h1.26v14.611c-0.432-0.504-0.852-1.018-1.26-1.541V63.64   z M15.128,63.112v-2.599h3.069v2.599H15.128z M13.079,63.64h1.072v10.948c-0.37-0.537-0.726-1.084-1.072-1.639V63.64z    M17.125,78.425V63.64h1.072v15.983C17.832,79.231,17.476,78.83,17.125,78.425z M18.725,80.177V50.047l0.458-1.977h0.561v33.129   C19.398,80.864,19.059,80.523,18.725,80.177z M41.354,29.707v3.201L40.49,32.95v-3.242H41.354z M48.344,29.707v2.871l-6.462,0.306   v-3.176H48.344z M59.51,29.707v3.242l-0.864-0.041v-3.201H59.51z M50.003,91.775l-0.002,0.001c-0.001,0-0.001-0.001-0.002-0.001   c-0.001,0-0.002,0-0.004,0l-1.124,0.053v-1.966L50,89.81l1.128,0.053v1.966L50.003,91.775z M51.128,29.707v2.846L50.003,32.5   l-0.002,0.001c-0.001,0-0.001-0.001-0.002-0.001c-0.001,0-0.002,0-0.004,0l-1.124,0.053v-2.846H51.128z M50,32.651l1.128,0.053   v1.966l-1.124-0.053l-0.002,0.001c-0.001,0-0.001-0.001-0.002-0.001c-0.001,0-0.002,0-0.004,0l-1.124,0.053v-1.966L50,32.651z    M50.003,89.658c-0.001,0-0.001,0.001-0.001,0.001c-0.001,0-0.002-0.001-0.003-0.001c-0.001,0-0.002,0-0.004,0l-1.124,0.053v-1.966   L50,87.692l1.128,0.053v1.966L50.003,89.658z M40.49,35.218l0.864-0.041v1.777l-0.864,0.041V35.218z M50,34.768l1.128,0.053v1.966   l-1.124-0.053c-0.001,0-0.003,0-0.004,0c-0.001,0-0.002,0-0.004,0l-1.124,0.053v-1.966L50,34.768z M50.003,87.541l-0.002,0.001   c-0.001,0-0.001-0.001-0.002-0.001c-0.001,0-0.002,0-0.004,0l-1.124,0.053v-1.966L50,85.575l1.128,0.053v1.966L50.003,87.541z    M50,36.885l1.128,0.053v1.966l-1.124-0.053c-0.001,0-0.003,0-0.004,0c-0.001,0-0.002,0-0.004,0l-1.124,0.053v-1.966L50,36.885z    M50.003,85.424l-0.002,0.001c-0.001,0-0.001-0.001-0.002-0.001c-0.001,0-0.002,0-0.004,0l-1.124,0.053v-1.966L50,83.459   l1.128,0.053v1.966L50.003,85.424z M40.49,56.388l0.864-0.041v1.966l-0.864,0.041V56.388z M44.849,37.317v1.777l-2.967,0.14v-1.777   L44.849,37.317z M44.849,39.246v1.966l-2.967,0.14v-1.966L44.849,39.246z M50,39.002l1.128,0.053v1.966l-1.124-0.053   c-0.001,0-0.003,0-0.004,0c-0.001,0-0.002,0-0.004,0l-1.124,0.053v-1.966L50,39.002z M55.151,37.317l2.967,0.14v1.777l-2.967-0.14   V37.317z M58.118,39.386v1.966l-2.967-0.14v-1.966L58.118,39.386z M51.656,51.442v-1.777l2.967,0.14v1.777L51.656,51.442z    M51.656,49.514v-1.966l2.967,0.14v1.966L51.656,49.514z M50.003,49.436c-0.001,0-0.003,0-0.004,0c-0.001,0-0.002,0-0.004,0   l-1.124,0.053v-1.966L50,47.47l1.128,0.053v1.966L50.003,49.436z M40.49,41.569l0.864-0.041v1.966l-0.864,0.041V41.569z M50,41.119   l1.128,0.053v1.966l-1.124-0.053c-0.001,0-0.003,0-0.004,0c-0.001,0-0.002,0-0.004,0l-1.124,0.053v-1.966L50,41.119z M55.151,43.48   l2.967,0.14v1.966l-2.967-0.14V43.48z M54.623,45.42l-2.967-0.14v-1.966l2.967,0.14V45.42z M58.646,43.645l0.864,0.041v1.966   l-0.864-0.041V43.645z M59.51,43.534l-0.864-0.041v-1.966l0.864,0.041V43.534z M58.118,43.469l-2.967-0.14v-1.966l2.967,0.14   V43.469z M54.623,43.303l-2.967-0.14v-1.966l2.967,0.14V43.303z M48.344,43.163l-2.967,0.14v-1.966l2.967-0.14V43.163z    M44.849,43.328l-2.967,0.14v-1.966l2.967-0.14V43.328z M40.49,43.686l0.864-0.041v1.966l-0.864,0.041V43.686z M41.882,43.62   l2.967-0.14v1.966l-2.967,0.14V43.62z M45.377,43.455l2.967-0.14v1.966l-2.967,0.14V43.455z M48.872,43.289L50,43.236l1.128,0.053   v1.966l-1.124-0.053c-0.001,0-0.003,0-0.004,0c-0.001,0-0.002,0-0.004,0l-1.124,0.053V43.289z M50,45.353l1.128,0.053v1.966   l-1.124-0.053c-0.001,0-0.003,0-0.004,0c-0.001,0-0.002,0-0.004,0l-1.124,0.053v-1.966L50,45.353z M51.656,47.397v-1.966   l2.967,0.14v1.966L51.656,47.397z M55.151,45.597l2.967,0.14v1.966l-2.967-0.14V45.597z M58.646,45.762l0.864,0.041v1.966   l-0.864-0.041V45.762z M59.51,41.417l-0.864-0.041v-1.966l0.864,0.041V41.417z M54.623,41.186l-2.967-0.14V39.08l2.967,0.14V41.186   z M48.344,41.046l-2.967,0.14v-1.966l2.967-0.14V41.046z M41.354,41.376l-0.864,0.041v-1.966l0.864-0.041V41.376z M40.49,45.803   l0.864-0.041v1.966l-0.864,0.041V45.803z M41.882,45.737l2.967-0.14v1.966l-2.967,0.14V45.737z M45.377,45.572l2.967-0.14v1.966   l-2.967,0.14V45.572z M48.344,47.548v1.966l-2.967,0.14v-1.966L48.344,47.548z M48.344,49.665v1.777l-2.967,0.14v-1.777   L48.344,49.665z M48.872,49.64L50,49.587l1.128,0.053v1.777l-1.116-0.053c-0.004,0-0.008,0.002-0.012,0.002   c-0.004,0-0.008-0.002-0.013-0.002l-1.115,0.053V49.64z M50,51.893l1.128,0.053v1.777l-1.124-0.053c-0.001,0-0.003,0-0.004,0   c-0.001,0-0.002,0-0.004,0l-1.124,0.053v-1.777L50,51.893z M50,53.821l1.128,0.053v1.966l-1.124-0.053l-0.002,0.001   c-0.001,0-0.001-0.001-0.002-0.001c-0.001,0-0.002,0-0.004,0l-1.124,0.053v-1.966L50,53.821z M50,55.938l1.128,0.053v1.966   l-1.124-0.053l-0.002,0.001c-0.001,0-0.001-0.001-0.002-0.001c-0.001,0-0.002,0-0.004,0l-1.124,0.053v-1.966L50,55.938z    M50.003,83.307l-0.002,0.001c-0.001,0-0.001-0.001-0.002-0.001c-0.001,0-0.002,0-0.004,0l-1.124,0.053v-1.966L50,81.342   l1.128,0.053v1.966L50.003,83.307z M50,58.055l1.128,0.053v1.966l-1.124-0.053l-0.002,0.001c-0.001,0-0.001-0.001-0.002-0.001   c-0.001,0-0.002,0-0.004,0l-1.124,0.053v-1.966L50,58.055z M50.003,81.19c-0.001,0-0.001,0.001-0.001,0.001   c-0.001,0-0.002-0.001-0.003-0.001c-0.001,0-0.002,0-0.004,0l-1.124,0.053v-1.966L50,79.225l1.128,0.053v1.966L50.003,81.19z    M50.003,79.074l-0.002,0.001c-0.001,0-0.001-0.001-0.002-0.001c-0.001,0-0.002,0-0.004,0l-1.124,0.053v-1.966L50,77.107   l1.128,0.053v1.966L50.003,79.074z M50.003,76.956l-0.002,0.001c-0.001,0-0.001-0.001-0.002-0.001c-0.001,0-0.002,0-0.004,0   l-1.124,0.053v-1.966L50,74.991l1.128,0.053v1.966L50.003,76.956z M50.003,74.839l-0.002,0.001c-0.001,0-0.001-0.001-0.002-0.001   c-0.001,0-0.002,0-0.004,0l-1.124,0.053v-1.966L50,72.874l1.128,0.053v1.966L50.003,74.839z M50.003,72.723l-0.002,0.001   c-0.001,0-0.001-0.001-0.002-0.001c-0.001,0-0.002,0-0.004,0l-1.124,0.053V70.81L50,70.757l1.128,0.053v1.966L50.003,72.723z    M50.003,70.606l-0.002,0.001c-0.001,0-0.001-0.001-0.002-0.001c-0.001,0-0.002,0-0.004,0l-1.124,0.053v-1.966L50,68.64   l1.128,0.053v1.966L50.003,70.606z M50.003,68.488l-0.002,0.001c-0.001,0-0.001-0.001-0.002-0.001c-0.001,0-0.002,0-0.004,0   l-1.124,0.053v-1.966L50,66.523l1.128,0.053v1.966L50.003,68.488z M50.003,66.371l-0.002,0.001c-0.001,0-0.001-0.001-0.002-0.001   c-0.001,0-0.002,0-0.004,0l-1.124,0.053v-1.966L50,64.406l1.128,0.053v1.966L50.003,66.371z M50.003,64.255l-0.002,0.001   c-0.001,0-0.001-0.001-0.002-0.001c-0.001,0-0.002,0-0.004,0l-1.124,0.053v-1.966L50,62.289l1.128,0.053v1.966L50.003,64.255z    M50.003,62.138l-0.002,0.001c-0.001,0-0.001-0.001-0.002-0.001c-0.001,0-0.002,0-0.004,0l-1.124,0.053v-1.966L50,60.172   l1.128,0.053v1.966L50.003,62.138z M48.344,60.099l-6.462,0.305v-1.966l6.462-0.306V60.099z M48.344,60.25v1.966l-6.462,0.306   v-1.966L48.344,60.25z M48.344,62.367v1.966l-6.462,0.306v-1.966L48.344,62.367z M48.344,64.484v1.966l-6.462,0.306V64.79   L48.344,64.484z M48.344,66.601v1.966l-6.462,0.306v-1.966L48.344,66.601z M48.344,68.718v1.966l-6.462,0.305v-1.966L48.344,68.718   z M48.344,70.835v1.966l-6.462,0.306V71.14L48.344,70.835z M48.344,72.952v1.966l-6.462,0.306v-1.966L48.344,72.952z    M48.344,75.069v1.966l-6.462,0.306v-1.966L48.344,75.069z M48.344,77.186v1.966l-6.462,0.305v-1.966L48.344,77.186z    M48.344,79.303v1.966l-6.462,0.306v-1.966L48.344,79.303z M48.344,81.42v1.966l-6.462,0.306v-1.966L48.344,81.42z M51.656,81.42   l6.462,0.306v1.966l-6.462-0.306V81.42z M51.656,81.269v-1.966l6.462,0.305v1.966L51.656,81.269z M51.656,79.152v-1.966   l6.462,0.306v1.966L51.656,79.152z M51.656,77.034v-1.966l6.462,0.306v1.966L51.656,77.034z M51.656,74.918v-1.966l6.462,0.306   v1.966L51.656,74.918z M51.656,72.801v-1.966l6.462,0.305v1.966L51.656,72.801z M51.656,70.684v-1.966l6.462,0.306v1.966   L51.656,70.684z M51.656,68.567v-1.966l6.462,0.306v1.966L51.656,68.567z M51.656,66.45v-1.966l6.462,0.306v1.966L51.656,66.45z    M51.656,64.333v-1.966l6.462,0.306v1.966L51.656,64.333z M51.656,62.216V60.25l6.462,0.305v1.966L51.656,62.216z M51.656,60.099   v-1.966l6.462,0.306v1.966L51.656,60.099z M51.656,57.982v-1.966l6.462,0.306v1.966L51.656,57.982z M48.344,57.982l-6.462,0.306   v-1.966l6.462-0.306V57.982z M40.49,58.504l0.864-0.041v1.966L40.49,60.47V58.504z M40.49,60.621l0.864-0.041v1.966l-0.864,0.041   V60.621z M40.49,62.739l0.864-0.041v1.966l-0.864,0.041V62.739z M40.49,64.855l0.864-0.041v1.966l-0.864,0.041V64.855z    M40.49,66.972l0.864-0.041v1.966l-0.864,0.041V66.972z M40.49,69.089l0.864-0.041v1.966l-0.864,0.041V69.089z M40.49,71.206   l0.864-0.041v1.966l-0.864,0.041V71.206z M40.49,73.323l0.864-0.041v1.966l-0.864,0.041V73.323z M40.49,75.44l0.864-0.041v1.966   l-0.864,0.041V75.44z M40.49,77.557l0.864-0.041v1.966l-0.864,0.041V77.557z M40.49,79.674l0.864-0.041v1.966L40.49,81.64V79.674z    M40.49,81.791l0.864-0.041v1.966l-0.864,0.041V81.791z M40.49,83.908l0.864-0.041v1.966l-0.864,0.041V83.908z M41.882,83.842   l6.462-0.306v1.966l-6.462,0.306V83.842z M51.656,83.537l6.462,0.306v1.966l-6.462-0.306V83.537z M58.646,83.867l0.864,0.041v1.966   l-0.864-0.041V83.867z M58.646,83.716V81.75l0.864,0.041v1.966L58.646,83.716z M58.646,81.599v-1.966l0.864,0.041v1.966   L58.646,81.599z M58.646,79.482v-1.966l0.864,0.041v1.966L58.646,79.482z M58.646,77.365v-1.966l0.864,0.041v1.966L58.646,77.365z    M58.646,75.248v-1.966l0.864,0.041v1.966L58.646,75.248z M58.646,73.131v-1.966l0.864,0.041v1.966L58.646,73.131z M58.646,71.014   v-1.966l0.864,0.041v1.966L58.646,71.014z M58.646,68.897v-1.966l0.864,0.041v1.966L58.646,68.897z M58.646,66.78v-1.966   l0.864,0.041v1.966L58.646,66.78z M58.646,64.663v-1.966l0.864,0.041v1.966L58.646,64.663z M58.646,62.546v-1.966l0.864,0.041   v1.966L58.646,62.546z M58.646,60.429v-1.966l0.864,0.041v1.966L58.646,60.429z M58.646,58.312v-1.966l0.864,0.041v1.966   L58.646,58.312z M59.51,56.236l-0.864-0.041V54.23l0.864,0.041V56.236z M58.118,56.17l-6.462-0.306v-1.966l6.462,0.306V56.17z    M51.656,53.748v-1.777l6.462,0.306v1.777L51.656,53.748z M55.151,51.608V49.83l2.967,0.14v1.777L55.151,51.608z M55.151,49.679   v-1.966l2.967,0.14v1.966L55.151,49.679z M58.646,47.879l0.864,0.041v1.966l-0.864-0.041V47.879z M58.646,39.259v-1.777   l0.864,0.041V39.3L58.646,39.259z M54.623,39.069l-2.967-0.14v-1.966l2.967,0.14V39.069z M48.344,38.929l-2.967,0.14v-1.966   l2.967-0.14V38.929z M40.49,37.523l0.864-0.041v1.777L40.49,39.3V37.523z M40.49,47.92l0.864-0.041v1.966l-0.864,0.041V47.92z    M41.882,47.854l2.967-0.14v1.966l-2.967,0.14V47.854z M44.849,49.83v1.777l-2.967,0.14v-1.777L44.849,49.83z M48.344,51.971v1.777   l-6.462,0.306v-1.777L48.344,51.971z M48.344,53.899v1.966l-6.462,0.306v-1.966L48.344,53.899z M41.354,56.195l-0.864,0.041v-1.966   l0.864-0.041V56.195z M40.49,86.025l0.864-0.041v1.966l-0.864,0.041V86.025z M41.882,85.959l6.462-0.306v1.966l-6.462,0.306V85.959   z M51.656,85.654l6.462,0.306v1.966l-6.462-0.306V85.654z M58.646,85.984l0.864,0.041v1.966l-0.864-0.041V85.984z M58.646,54.078   v-1.777l0.864,0.041v1.777L58.646,54.078z M58.646,51.773v-1.777l0.864,0.041v1.777L58.646,51.773z M59.51,36.995l-0.864-0.041   v-1.777l0.864,0.041V36.995z M58.118,36.929l-3.218-0.152c-0.002,0-0.005,0.001-0.007,0.001c-0.002,0-0.004-0.001-0.005-0.001   c-0.006,0-0.011,0.003-0.017,0.003c-0.102,0.001-0.186,0.063-0.224,0.154c-0.003,0.006-0.003,0.013-0.005,0.019l-2.985-0.141   v-1.966l6.462,0.306V36.929z M48.344,36.812l-2.985,0.141c-0.002-0.007-0.004-0.014-0.007-0.021   c-0.013-0.029-0.031-0.055-0.052-0.077c0,0-0.001-0.001-0.001-0.001c-0.045-0.048-0.105-0.075-0.172-0.075   c-0.005,0-0.01-0.003-0.015-0.003c-0.002,0-0.003,0.001-0.005,0.001c-0.002,0-0.005-0.001-0.007-0.001l-3.218,0.152v-1.777   l6.462-0.306V36.812z M40.49,50.037l0.864-0.041v1.777l-0.864,0.041V50.037z M40.49,52.342l0.864-0.041v1.777l-0.864,0.041V52.342z    M40.49,90.259l0.864-0.041v1.966l-0.864,0.041V90.259z M40.49,90.108v-1.966l0.864-0.041v1.966L40.49,90.108z M41.882,88.076   l6.462-0.306v1.966l-6.462,0.305V88.076z M51.656,87.771l6.462,0.306v1.966l-6.462-0.305V87.771z M58.646,88.101l0.864,0.041v1.966   l-0.864-0.041V88.101z M59.51,90.259v1.966l-0.864-0.041v-1.966L59.51,90.259z M59.51,35.067l-0.864-0.041V33.06l0.864,0.041   V35.067z M58.118,35.001l-6.462-0.306V32.73l6.462,0.306V35.001z M48.344,34.695l-6.462,0.306v-1.966l6.462-0.306V34.695z    M41.354,35.026l-0.864,0.041v-1.966l0.864-0.041V35.026z M40.49,92.376l0.864-0.041v0.29c-0.29-0.059-0.576-0.13-0.864-0.194   V92.376z M41.882,92.31l6.462-0.306v1.445c-2.2-0.083-4.357-0.33-6.462-0.729V92.31z M41.882,92.159v-1.966l6.462-0.305v1.966   L41.882,92.159z M51.656,89.888l6.462,0.305v1.966l-6.462-0.306V89.888z M58.118,92.31v0.41c-2.105,0.399-4.262,0.646-6.462,0.729   v-1.445L58.118,92.31z M58.646,92.335l0.864,0.041v0.055c-0.288,0.065-0.574,0.135-0.864,0.194V92.335z M58.118,32.884   l-6.462-0.306v-2.871h6.462V32.884z M50.003,27.993l-0.002,0.001c-0.001,0-0.001-0.001-0.002-0.001c-0.001,0-0.002,0-0.004,0   l-6.722,0.318v-1.517L50,26.476l6.726,0.318v1.517L50.003,27.993z M49.886,24.537c0.038,0,0.076,0,0.114,0c0.038,0,0.076,0,0.114,0   c1.853,0,3.669-0.391,5.345-1.14l1.268,0.06v1.517l-6.722-0.318l-0.002,0.001c-0.001,0-0.001-0.001-0.002-0.001   c-0.001,0-0.002,0-0.004,0l-6.722,0.318v-1.517l1.267-0.06C46.217,24.146,48.033,24.537,49.886,24.537z M50.003,26.325   c-0.001,0-0.003,0-0.004,0c-0.001,0-0.002,0-0.004,0l-6.722,0.318v-1.517L50,24.808l6.726,0.318v1.517L50.003,26.325z    M56.726,23.306l-0.982-0.047c0.334-0.159,0.661-0.334,0.982-0.522V23.306z M50.002,24.009c-0.001,0-0.001,0.001-0.002,0.001   c-0.001,0-0.002-0.001-0.003-0.001c-2.097,0.011-4.157-0.49-6.003-1.468h12.013C54.163,23.521,52.11,24.029,50.002,24.009z    M44.256,23.259l-0.982,0.047v-0.568C43.595,22.925,43.922,23.1,44.256,23.259z M43.274,28.462L50,28.144l6.726,0.318v0.717H43.274   V28.462z M48.872,93.463V91.98L50,91.926l1.128,0.053v1.483c-0.376,0.01-0.75,0.029-1.128,0.029   C49.622,93.492,49.248,93.473,48.872,93.463z M86.047,74.308H86.03v-1.539h1.006C86.715,73.289,86.389,73.804,86.047,74.308z    M84.844,75.999l-1.229,0v-1.54h2.264v0.086C85.542,75.036,85.2,75.523,84.844,75.999z M81.676,79.756l-0.476,0v-1.539h1.855   C82.607,78.741,82.148,79.254,81.676,79.756z M77.614,83.575l-1.244,0v-1.544h2.264v0.663   C78.296,82.99,77.961,83.289,77.614,83.575z M74.878,85.642l-0.923,0v-1.539h2.264v0.569C75.78,85.005,75.33,85.325,74.878,85.642z    M72.279,87.334l-0.738,0.001v-1.542h2.264v0.578C73.302,86.701,72.795,87.024,72.279,87.334z M65.276,90.715l-1.969-0.807v-1.459   l3.064,1.018v0.815C66.008,90.43,65.644,90.576,65.276,90.715z M83.186,78.066l-1.986,0v-1.539h2.264v1.218   C83.374,77.854,83.278,77.958,83.186,78.066z M68.39,89.4h-1.49V87.86h2.075v1.266C68.781,89.221,68.584,89.308,68.39,89.4z    M86.03,68.484v-1.872h2.075v1.872H86.03z M85.879,68.484h-2.264v-1.872h2.264V68.484z M63.307,75.439l3.064-0.899v1.51   l-3.064,0.66V75.439z M81.049,66.461h-2.264v-1.539h2.264V66.461z M81.2,64.922h2.264v1.539H81.2V64.922z M76.219,72.769v1.539   h-2.264v-1.539H76.219z M73.956,72.241v-1.539h2.264v1.539H73.956z M76.37,72.769h2.264v1.539H76.37V72.769z M76.37,72.241v-1.539   h2.264v1.539H76.37z M76.37,70.551v-1.539h2.264v1.539H76.37z M76.37,68.484v-1.872h2.264v1.872H76.37z M78.785,69.012h2.264v1.539   h-2.264V69.012z M78.785,68.484v-1.872h2.264v1.872H78.785z M78.785,64.394v-1.872h2.264v1.872H78.785z M78.785,62.371v-1.539   h2.264v1.539H78.785z M78.634,62.371H76.37v-1.539h2.264V62.371z M78.634,62.522v1.872H76.37v-1.872H78.634z M78.634,64.922v1.539   H76.37v-1.539H78.634z M76.219,66.461h-2.264v-1.539h2.264V66.461z M76.219,66.612v1.872h-2.264v-1.872H76.219z M76.219,69.012   v1.539h-2.264v-1.539H76.219z M73.805,70.551H71.54v-1.539h2.264V70.551z M73.805,70.702v1.539H71.54v-1.539H73.805z    M73.805,72.769v1.539H71.54v-1.539H73.805z M71.389,74.308h-2.264v-1.539h2.264V74.308z M63.307,77.249l3.064-0.665v1.517   l-3.064,0.421V77.249z M66.899,76.005v-1.545h2.075v1.545L66.899,76.005z M68.975,76.527v1.54l-2.075,0v-1.54H68.975z    M63.307,81.816v-1.332l3.064-0.183v1.579L63.307,81.816z M66.371,82.03v1.517l-3.064-0.302v-1.279L66.371,82.03z M66.899,80.284   h2.075v1.596h-2.075V80.284z M66.899,79.756v-1.539h2.075v1.539L66.899,79.756z M69.126,78.217h2.264v1.539l-2.264,0V78.217z    M69.126,78.067v-1.54h2.264v1.54L69.126,78.067z M69.126,76.004v-1.545h2.264v1.544L69.126,76.004z M68.975,74.308h-2.075v-1.539   h2.075V74.308z M63.307,78.675l3.064-0.422v1.518l-3.064,0.183V78.675z M66.371,84.077v1.517l-3.064-0.541v-1.278L66.371,84.077z    M63.307,85.207l3.064,0.54v1.51l-3.064-0.779V85.207z M66.899,84.103h2.075v1.54l-2.075,0V84.103z M66.899,83.576v-1.545h2.075   v1.545L66.899,83.576z M69.126,82.031h2.264v1.545l-2.264,0V82.031z M69.126,81.88v-1.596h2.264v1.596H69.126z M71.54,80.284h2.264   v1.596H71.54V80.284z M71.54,79.756v-1.539h2.264v1.539L71.54,79.756z M71.54,78.067v-1.54h2.264v1.539L71.54,78.067z    M71.54,76.003v-1.544h2.264v1.543L71.54,76.003z M73.956,74.459h2.264v1.542l-2.264,0.001V74.459z M76.37,74.459h2.264v1.542   l-2.264,0.001V74.459z M78.785,74.459h2.264V76l-2.264,0.001V74.459z M78.785,74.308v-1.539h2.264v1.539H78.785z M78.785,72.241   v-1.539h2.264v1.539H78.785z M81.2,70.702h2.264v1.539H81.2V70.702z M81.2,70.551v-1.539h2.264v1.539H81.2z M81.2,68.484v-1.872   h2.264v1.872H81.2z M83.615,66.461v-1.539h2.264v1.539H83.615z M83.615,64.394v-1.872h2.075v1.872H83.615z M83.464,64.394H81.2   v-1.872h2.264V64.394z M81.2,62.371v-1.539h2.264v1.539H81.2z M83.276,60.304H81.2v-1.706h2.076V60.304z M81.049,60.304h-2.264   v-1.706h2.264V60.304z M78.785,58.447v-1.706h2.264v1.706H78.785z M80.86,56.213h-2.075v-1.706h2.075V56.213z M78.634,56.213   h-2.075v-1.706h2.075V56.213z M76.37,56.742h2.264v1.706H76.37V56.742z M78.634,58.598v1.706H76.37v-1.706H78.634z M76.219,60.304   h-2.075v-1.706h2.075V60.304z M73.956,60.832h2.264v1.539h-2.264V60.832z M76.219,62.522v1.872h-2.264v-1.872H76.219z    M73.805,64.394h-2.076v-1.872h2.076V64.394z M71.54,64.922h2.264v1.539H71.54V64.922z M73.805,66.612v1.872H71.54v-1.872H73.805z    M71.389,68.484h-2.075v-1.872h2.075V68.484z M69.126,69.012h2.264v1.539h-2.264V69.012z M71.389,70.702v1.539h-2.264v-1.539   H71.389z M68.975,72.241h-2.075v-1.539h2.075V72.241z M66.371,74.382l-3.064,0.898v-1.259l3.064-1.137V74.382z M63.307,87.022   l3.064,0.772v1.514l-3.064-1.018V87.022z M66.899,87.34v-1.547h2.075v1.545L66.899,87.34z M69.126,85.793h2.264v1.542l-2.264,0.003   V85.793z M69.126,85.643v-1.54h2.264v1.54L69.126,85.643z M71.54,84.103h2.264v1.539l-2.264,0V84.103z M71.54,83.576v-1.545h2.264   v1.544L71.54,83.576z M73.956,82.031h2.264v1.544l-2.264,0V82.031z M73.956,81.88v-1.596h2.264v1.596H73.956z M73.956,79.756   v-1.539h2.264v1.539L73.956,79.756z M73.956,78.066v-1.539h2.264v1.539L73.956,78.066z M76.37,76.527h2.264v1.539l-2.264,0V76.527z    M78.785,76.527h2.264v1.539l-2.264,0V76.527z M81.2,76v-1.541h2.264v1.54L81.2,76z M81.2,74.308v-1.539h2.264v1.539H81.2z    M83.615,72.769h2.264v1.539h-2.264V72.769z M83.615,72.241v-1.539h2.264v1.539H83.615z M83.615,70.551v-1.539h2.264v1.539H83.615z    M86.03,69.012h2.264v1.539H86.03V69.012z M88.105,66.461H86.03v-1.539h2.075V66.461z M85.691,62.371h-2.075v-1.539h2.075V62.371z    M83.276,58.447H81.2v-1.706h2.076V58.447z M80.86,54.357h-2.075v-1.894h0.149c0.033,0.108,0.13,0.189,0.249,0.189h1.678V54.357z    M78.919,52.312h-0.134v-1.811h0.134V52.312z M78.634,52.312h-0.133v-1.811h0.133V52.312z M78.237,52.651   c0.119,0,0.216-0.08,0.249-0.189h0.149v1.894h-2.075v-1.706H78.237z M76.219,56.742v1.706h-2.075v-1.706H76.219z M73.805,60.832   v1.539h-2.076v-1.539H73.805z M71.389,64.922v1.539h-2.075v-1.539H71.389z M68.975,69.012v1.539h-2.075v-1.539H68.975z    M66.371,72.322l-3.064,1.137v-1.255l3.064-1.375V72.322z M66.899,89.551h1.157c-0.385,0.176-0.766,0.358-1.157,0.523V89.551z    M69.126,89.049V87.86h2.238C70.629,88.276,69.885,88.675,69.126,89.049z M73.956,85.793h0.711   c-0.235,0.163-0.472,0.323-0.711,0.482V85.793z M76.37,84.103h0.572c-0.19,0.151-0.379,0.302-0.572,0.45V84.103z M78.785,82.031   h0.598c-0.197,0.181-0.398,0.355-0.598,0.532V82.031z M78.634,81.88H76.37v-1.596h2.264V81.88z M76.37,79.756v-1.539h2.264v1.539   L76.37,79.756z M78.785,78.217h2.264v1.539l-2.264,0V78.217z M83.615,77.563v-1.036h0.814   C84.161,76.875,83.894,77.224,83.615,77.563z M86.03,72.241v-1.539h2.21c-0.283,0.521-0.582,1.031-0.885,1.539H86.03z    M88.445,70.303v-1.292h0.662C88.895,69.447,88.671,69.876,88.445,70.303z M88.633,68.484v-1.723l1.052,0.554v0.054   c0,0.078,0.035,0.146,0.089,0.194c-0.137,0.308-0.273,0.616-0.417,0.921H88.633z M90.213,66.545v-0.618l0.202,0.106   C90.348,66.204,90.283,66.376,90.213,66.545z M89.685,67.144l-1.052-0.554v-1.495l1.052,0.554V67.144z M88.492,64.424   c-0.003-0.002-0.007-0.001-0.01-0.003c-0.017-0.008-0.035-0.011-0.054-0.016c-0.016-0.004-0.032-0.009-0.048-0.01   c-0.004,0-0.007-0.002-0.012-0.002h-2.151v-1.723l3.467,1.826v0.037c0,0.005-0.003,0.009-0.003,0.013   c0,0.005,0.003,0.01,0.003,0.015v0.491L88.492,64.424z M89.685,63.598c0,0.005-0.003,0.009-0.003,0.014   c0,0.005,0.003,0.009,0.003,0.014v0.701L86.219,62.5v-1.495l3.467,1.826V63.598z M86.078,60.334   c-0.003-0.002-0.007-0.001-0.01-0.003c-0.017-0.008-0.035-0.011-0.053-0.016c-0.016-0.004-0.032-0.009-0.049-0.01   c-0.004,0-0.007-0.002-0.011-0.002h-2.151V58.58l3.467,1.826v0.556L86.078,60.334z M87.27,60.236l-3.467-1.826v-1.495l3.467,1.826   V60.236z M83.663,56.244c-0.003-0.002-0.007-0.001-0.01-0.003c-0.018-0.008-0.037-0.012-0.056-0.016   c-0.015-0.003-0.029-0.008-0.044-0.009c-0.004,0-0.008-0.003-0.013-0.003h-2.151V54.49l3.467,1.826v0.556L83.663,56.244z    M84.855,56.146l-3.467-1.826v-1.495l3.467,1.826V56.146z M81.248,52.154c-0.003-0.002-0.007-0.001-0.01-0.003   c-0.018-0.008-0.037-0.012-0.056-0.016c-0.015-0.003-0.029-0.008-0.044-0.009c-0.004,0-0.008-0.003-0.013-0.003h-1.678V50.65   l3.467,1.826v0.556L81.248,52.154z M82.914,52.305l-3.467-1.826v-1.495l3.467,1.826V52.305z M78.919,50.35h-0.134v-1.539h0.134   V50.35z M78.634,50.35h-0.133v-1.539h0.133V50.35z M77.973,50.479l-3.467,1.826V50.81l3.467-1.826V50.479z M74.506,52.475   l3.467-1.826v1.474h-1.678c-0.004,0-0.008,0.002-0.012,0.002c-0.015,0.001-0.029,0.006-0.043,0.009   c-0.02,0.004-0.04,0.008-0.058,0.017c-0.003,0.001-0.007,0.001-0.01,0.003l-1.666,0.877V52.475z M76.031,52.825v1.495l-3.467,1.826   v-1.496L76.031,52.825z M72.564,56.316l3.467-1.826v1.723H73.88c-0.004,0-0.008,0.002-0.012,0.002   c-0.015,0.001-0.029,0.006-0.044,0.009c-0.02,0.004-0.039,0.008-0.057,0.016c-0.003,0.002-0.007,0.001-0.01,0.003l-1.193,0.628   V56.316z M73.616,56.915v1.495l-3.467,1.826v-1.496L73.616,56.915z M70.149,60.407l3.467-1.826v1.723h-2.151   c-0.004,0-0.007,0.002-0.011,0.002c-0.017,0.001-0.032,0.006-0.049,0.01c-0.018,0.004-0.036,0.008-0.053,0.016   c-0.003,0.002-0.007,0.001-0.01,0.003l-1.193,0.628V60.407z M71.201,61.005V62.5l-3.466,1.826v-1.495L71.201,61.005z    M67.735,64.496l3.466-1.826v1.723H69.05c-0.004,0-0.007,0.002-0.011,0.002c-0.016,0.001-0.031,0.006-0.047,0.009   c-0.019,0.004-0.038,0.008-0.055,0.016c-0.003,0.002-0.007,0.001-0.01,0.003l-1.193,0.628V64.496z M68.786,65.095v1.495   l-3.467,1.826v-1.495L68.786,65.095z M65.319,68.587l3.467-1.826v1.723h-2.151c-0.004,0-0.008,0.002-0.012,0.002   c-0.014,0.001-0.028,0.006-0.043,0.009c-0.02,0.004-0.04,0.008-0.058,0.017c-0.003,0.001-0.007,0.001-0.01,0.003l-1.193,0.628   V68.587z M66.371,69.185v1.477l-3.064,1.375v-1.239L66.371,69.185z M63.307,90.071l1.766,0.724   c-0.582,0.216-1.173,0.415-1.766,0.606V90.071z M79.542,81.88h-0.757v-1.596h2.264v0.129C80.558,80.914,80.056,81.403,79.542,81.88   z M90.611,65.54l-0.397-0.209v-2.659c0-0.013-0.006-0.024-0.007-0.037c-0.003-0.018-0.004-0.036-0.011-0.053   c-0.006-0.017-0.015-0.031-0.024-0.045c-0.009-0.014-0.016-0.028-0.027-0.04c-0.013-0.014-0.028-0.025-0.044-0.036   c-0.01-0.007-0.016-0.016-0.027-0.022l-2.274-1.198v-2.659c0-0.013-0.006-0.024-0.007-0.037c-0.003-0.018-0.004-0.036-0.011-0.053   c-0.006-0.017-0.015-0.031-0.024-0.045c-0.009-0.014-0.016-0.028-0.027-0.04c-0.013-0.014-0.028-0.025-0.044-0.036   c-0.01-0.007-0.016-0.016-0.027-0.022l-2.274-1.198v-2.659c0-0.013-0.006-0.024-0.007-0.037c-0.003-0.018-0.004-0.036-0.011-0.053   c-0.006-0.017-0.015-0.031-0.024-0.045c-0.009-0.014-0.016-0.028-0.027-0.04c-0.013-0.014-0.028-0.025-0.044-0.036   c-0.01-0.007-0.016-0.016-0.027-0.022l-1.801-0.948v-2.659c0-0.013-0.006-0.024-0.007-0.037c-0.003-0.018-0.004-0.036-0.011-0.053   c-0.006-0.017-0.015-0.031-0.024-0.045c-0.009-0.014-0.016-0.028-0.027-0.04c-0.013-0.014-0.028-0.025-0.044-0.036   c-0.01-0.007-0.016-0.016-0.027-0.022l-3.995-2.104c-0.003-0.002-0.007-0.001-0.01-0.003c-0.017-0.008-0.036-0.012-0.055-0.016   c-0.015-0.004-0.03-0.009-0.046-0.009c-0.004,0-0.008-0.002-0.012-0.002h-0.946c-0.004,0-0.008,0.002-0.012,0.002   c-0.015,0.001-0.03,0.006-0.045,0.009c-0.019,0.004-0.039,0.008-0.056,0.016c-0.003,0.002-0.007,0.001-0.01,0.003l-3.995,2.104   c-0.011,0.006-0.018,0.015-0.027,0.022c-0.016,0.011-0.031,0.022-0.044,0.036c-0.011,0.012-0.019,0.026-0.027,0.04   c-0.009,0.015-0.018,0.029-0.024,0.045c-0.006,0.017-0.008,0.035-0.011,0.053c-0.002,0.013-0.007,0.024-0.007,0.037v2.659   l-1.801,0.949c-0.011,0.006-0.018,0.015-0.027,0.022c-0.016,0.011-0.031,0.022-0.044,0.036c-0.011,0.012-0.019,0.026-0.027,0.04   c-0.009,0.015-0.018,0.029-0.024,0.045c-0.006,0.017-0.008,0.035-0.011,0.053c-0.002,0.013-0.007,0.024-0.007,0.037v2.659   l-2.274,1.198c-0.011,0.006-0.018,0.015-0.027,0.022c-0.016,0.011-0.031,0.022-0.044,0.036c-0.011,0.012-0.019,0.026-0.027,0.04   c-0.009,0.015-0.018,0.029-0.024,0.045c-0.006,0.017-0.008,0.035-0.011,0.053c-0.002,0.013-0.007,0.024-0.007,0.037v2.659   l-2.274,1.198c-0.011,0.006-0.018,0.015-0.027,0.022c-0.016,0.011-0.031,0.022-0.044,0.036c-0.011,0.012-0.019,0.026-0.027,0.04   c-0.009,0.015-0.018,0.029-0.024,0.045c-0.006,0.017-0.008,0.035-0.011,0.053c-0.002,0.013-0.007,0.024-0.007,0.037v0.937   c0,0.001-0.001,0.002-0.001,0.004c0,0.001,0.001,0.002,0.001,0.004v0.928c0,0.001-0.001,0.002-0.001,0.004   c0,0.001,0.001,0.002,0.001,0.004v0.78l-2.274,1.198c-0.011,0.006-0.018,0.015-0.027,0.022c-0.016,0.011-0.031,0.022-0.044,0.036   c-0.011,0.012-0.019,0.026-0.027,0.04c-0.009,0.015-0.018,0.029-0.024,0.045c-0.006,0.017-0.008,0.035-0.011,0.053   c-0.002,0.013-0.007,0.024-0.007,0.037v2.659l-1.872,0.986c-0.011,0.006-0.018,0.015-0.027,0.022   c-0.016,0.011-0.031,0.022-0.044,0.036c-0.011,0.012-0.019,0.026-0.027,0.04c-0.009,0.015-0.018,0.029-0.024,0.045   c-0.006,0.017-0.008,0.035-0.011,0.053c-0.002,0.013-0.007,0.024-0.007,0.037v20.933c-0.901,0.277-1.817,0.517-2.741,0.736V29.443   c0-0.146-0.118-0.264-0.264-0.264h-2.52v-6.902c0-0.008-0.004-0.014-0.004-0.021c-0.001-0.017-0.005-0.033-0.01-0.05   c-0.005-0.018-0.011-0.035-0.019-0.051c-0.003-0.006-0.003-0.013-0.007-0.019c-0.005-0.008-0.013-0.012-0.019-0.02   c-0.012-0.015-0.023-0.027-0.038-0.039c-0.013-0.011-0.026-0.02-0.041-0.028c-0.015-0.008-0.029-0.015-0.045-0.02   c-0.017-0.006-0.035-0.009-0.053-0.011c-0.009-0.001-0.018-0.006-0.027-0.006H43.01c-0.01,0-0.018,0.005-0.027,0.006   c-0.018,0.002-0.035,0.005-0.053,0.011c-0.016,0.005-0.031,0.012-0.046,0.02c-0.014,0.008-0.028,0.017-0.04,0.027   c-0.014,0.012-0.026,0.025-0.038,0.04c-0.006,0.007-0.014,0.012-0.019,0.02c-0.004,0.006-0.004,0.013-0.007,0.019   c-0.009,0.016-0.014,0.033-0.019,0.051c-0.005,0.017-0.009,0.033-0.01,0.05c-0.001,0.007-0.004,0.014-0.004,0.021v6.902h-2.52   c-0.146,0-0.264,0.118-0.264,0.264v62.866c-0.924-0.219-1.841-0.459-2.741-0.737V60.437c0-0.146-0.118-0.264-0.264-0.264h-0.606   l-0.008-8.57l-0.563-2.208c-0.002-0.007-0.006-0.011-0.009-0.018c-0.006-0.018-0.015-0.034-0.025-0.051   c-0.008-0.013-0.015-0.026-0.025-0.037c-0.013-0.015-0.028-0.027-0.044-0.038c-0.011-0.008-0.022-0.017-0.034-0.023   c-0.017-0.009-0.034-0.014-0.052-0.019c-0.016-0.004-0.031-0.008-0.048-0.01c-0.007-0.001-0.013-0.004-0.02-0.004h-1.22   l-0.945-4.13c-0.001-0.004-0.004-0.007-0.005-0.01c-0.001-0.004,0-0.007-0.001-0.011c-0.004-0.014-0.014-0.024-0.021-0.037   c-0.008-0.016-0.015-0.031-0.025-0.045c-0.011-0.014-0.026-0.025-0.04-0.037c-0.012-0.01-0.022-0.02-0.036-0.028   c-0.017-0.01-0.035-0.015-0.054-0.021c-0.014-0.004-0.027-0.01-0.041-0.012c-0.019-0.003-0.037,0-0.056,0.001   c-0.013,0.001-0.026-0.002-0.039,0.001c-0.004,0.001-0.007,0.004-0.01,0.005c-0.004,0.001-0.007,0-0.011,0.001l-1.137,0.364   l-1.251-3.91c-0.002-0.007-0.008-0.012-0.01-0.018c-0.003-0.006-0.002-0.013-0.005-0.019c-0.005-0.01-0.014-0.017-0.02-0.026   c-0.01-0.015-0.019-0.029-0.032-0.041c-0.013-0.013-0.027-0.023-0.042-0.033c-0.013-0.009-0.026-0.017-0.04-0.023   c-0.017-0.007-0.034-0.012-0.052-0.015c-0.015-0.003-0.03-0.006-0.046-0.006c-0.018,0-0.036,0.002-0.054,0.006   c-0.01,0.002-0.021,0-0.031,0.003c-0.007,0.002-0.012,0.007-0.018,0.01c-0.006,0.003-0.013,0.002-0.019,0.005l-0.918,0.459   l-1.858-5.805c-0.017-0.052-0.051-0.091-0.09-0.122c-0.004-0.003-0.003-0.009-0.008-0.012c-0.003-0.002-0.008,0-0.011-0.003   c-0.051-0.034-0.111-0.047-0.173-0.04c-0.008,0.001-0.013,0.001-0.021,0.002c-0.01,0.002-0.019,0-0.029,0.003   c-0.052,0.017-0.091,0.051-0.123,0.09c-0.003,0.004-0.009,0.003-0.012,0.007l-1.787,2.493c-0.003,0.004,0,0.009-0.003,0.013   c-0.027,0.041-0.046,0.088-0.046,0.141v6.08h-0.598v-6.08c0-0.053-0.02-0.099-0.046-0.141c-0.003-0.004,0-0.009-0.003-0.013   l-1.787-2.493c-0.003-0.004-0.009-0.003-0.012-0.007c-0.031-0.04-0.071-0.074-0.123-0.09c-0.009-0.003-0.018-0.001-0.028-0.003   c-0.008-0.002-0.015-0.002-0.023-0.003c-0.063-0.007-0.123,0.007-0.174,0.04c-0.003,0.002-0.007,0-0.01,0.002   c-0.004,0.003-0.003,0.008-0.007,0.011c-0.04,0.032-0.074,0.071-0.091,0.124l-1.858,5.805l-0.918-0.459   c-0.006-0.003-0.013-0.003-0.019-0.005c-0.007-0.003-0.011-0.008-0.018-0.01c-0.01-0.003-0.021-0.001-0.031-0.003   c-0.018-0.004-0.035-0.006-0.054-0.006c-0.017,0-0.034,0.003-0.05,0.007c-0.016,0.003-0.03,0.007-0.045,0.013   c-0.017,0.007-0.033,0.017-0.048,0.027c-0.012,0.009-0.024,0.017-0.035,0.028c-0.014,0.013-0.024,0.028-0.035,0.045   c-0.006,0.009-0.014,0.014-0.019,0.024c-0.003,0.006-0.003,0.013-0.005,0.019c-0.003,0.007-0.008,0.012-0.01,0.019l-1.251,3.91   l-1.136-0.364c-0.004-0.001-0.007,0-0.011-0.001c-0.004-0.001-0.006-0.004-0.01-0.005c-0.013-0.003-0.025,0-0.037-0.001   c-0.02-0.002-0.04-0.004-0.06-0.001c-0.011,0.002-0.021,0.006-0.031,0.009c-0.022,0.006-0.044,0.013-0.064,0.024   c-0.01,0.006-0.018,0.015-0.028,0.022c-0.016,0.013-0.033,0.026-0.046,0.042c-0.01,0.013-0.016,0.028-0.024,0.043   c-0.007,0.013-0.017,0.024-0.021,0.038c-0.001,0.004,0,0.007-0.001,0.011c-0.001,0.004-0.004,0.006-0.005,0.01l-0.945,4.13h-1.221   c-0.007,0-0.014,0.004-0.021,0.004c-0.016,0.001-0.03,0.005-0.045,0.009c-0.019,0.005-0.037,0.01-0.055,0.02   c-0.012,0.006-0.022,0.014-0.033,0.022c-0.016,0.012-0.031,0.024-0.044,0.039c-0.01,0.011-0.017,0.024-0.025,0.037   c-0.01,0.016-0.018,0.032-0.024,0.05c-0.002,0.006-0.007,0.011-0.009,0.018l-0.571,2.273v8.504h-0.606   c-0.146,0-0.264,0.118-0.264,0.264v11.642C8.718,65.602,6.508,58.056,6.508,50C6.508,26.019,26.019,6.508,50,6.508   c23.982,0,43.492,19.51,43.492,43.491C93.492,55.474,92.465,60.71,90.611,65.54z"/></g><text x="0" y="115" fill="#000000" font-size="5px" font-weight="bold" font-family="'Helvetica Neue', Helvetica, Arial-Unicode, Arial, Sans-serif">Created by Vonn Weisenberger</text><text x="0" y="120" fill="#000000" font-size="5px" font-weight="bold" font-family="'Helvetica Neue', Helvetica, Arial-Unicode, Arial, Sans-serif">from the Noun Project</text></svg>