<svg xmlns="http://www.w3.org/2000/svg" xmlns:xlink="http://www.w3.org/1999/xlink" version="1.1" x="0px" y="0px" viewBox="0 0 100 100" enable-background="new 0 0 100 100" xml:space="preserve"><path fill="#000000" d="M57.913,37.085c-0.516,0.244-1.086,0.366-1.655,0.366c-0.529,0-1.045-0.109-1.534-0.314  c-1.494-0.625-2.254-1.9-2.254-3.503v-2.796c0-1.615,0.748-2.906,2.268-3.516c0.488-0.19,1.004-0.299,1.521-0.299  s1.059,0.122,1.533,0.325c1.467,0.639,2.173,1.914,2.173,3.49v2.796C59.964,35.143,59.325,36.433,57.913,37.085z M57.397,30.771  c0-0.787-0.258-1.494-1.181-1.494c-0.882,0-1.181,0.734-1.181,1.494v2.933c0,0.773,0.299,1.494,1.181,1.494  c0.923,0,1.181-0.707,1.181-1.494V30.771z"></path><path fill="#000000" d="M50.447,20.025c-0.56,0.108-1.142,0.086-1.695-0.055c-0.513-0.131-0.986-0.365-1.409-0.683  c-1.293-0.976-1.712-2.4-1.316-3.952l0.694-2.709c0.4-1.566,1.443-2.63,3.068-2.845c0.52-0.063,1.046-0.04,1.547,0.087  c0.501,0.128,0.996,0.382,1.406,0.696c1.262,0.982,1.63,2.393,1.239,3.919l-0.692,2.709C52.916,18.652,51.977,19.744,50.447,20.025z   M51.513,13.78c0.195-0.761,0.12-1.51-0.773-1.738c-0.855-0.22-1.326,0.417-1.515,1.153l-0.728,2.841  c-0.192,0.75-0.081,1.521,0.774,1.74c0.895,0.229,1.32-0.391,1.515-1.154L51.513,13.78z"></path><path fill="#000000" d="M35.506,10.409l-0.528-7.871l-1.639,0.11l-0.144-2.154l4.201-0.281l0.67,10.024L35.506,10.409z"></path><path fill="#000000" d="M42.725,36.834l-0.527-7.87l-1.639,0.109l-0.144-2.154l4.2-0.282l0.671,10.025L42.725,36.834z"></path><path fill="#000000" d="M62.684,27.405l2.557-7.462l-1.555-0.532l0.699-2.042l3.982,1.364l-3.255,9.505L62.684,27.405z"></path><path fill="#000000" d="M29.598,29.723l-0.528-7.87l-1.639,0.109l-0.144-2.154l4.2-0.282l0.671,10.025L29.598,29.723z"></path><path fill="#000000" d="M58.774,13.762l1.151-7.804l-1.624-0.24l0.313-2.136l4.165,0.614l-1.469,9.94L58.774,13.762z"></path><circle fill="#000000" cx="50.005" cy="93.938" r="5.85"></circle><path fill="#000000" d="M50.005,21.301c-17.806,0-32.287,2.84-32.763,6.377c-0.02-0.006-0.042-0.014-0.062-0.02l0.057,0.063  c-0.004,0.045-0.017,0.09-0.017,0.136c0,0.851,0.818,1.663,2.291,2.408l25.106,28.083v26.075c0,0.349,0.281,0.629,0.628,0.629  c7.046,0,9.815-3.373,9.931-3.517c0.089-0.111,0.137-0.25,0.137-0.392V58.349l25.04-28.009c1.567-0.766,2.438-1.604,2.438-2.482  C82.79,24.236,68.111,21.301,50.005,21.301z M70.166,29.208c-5.64,0.925-12.801,1.434-20.161,1.434  c-7.361,0-14.522-0.508-20.161-1.434c-2.749-0.451-4.722-0.926-6.124-1.352c1.402-0.424,3.375-0.9,6.124-1.351  c5.639-0.924,12.8-1.434,20.161-1.434c7.36,0,14.521,0.509,20.161,1.434c2.75,0.451,4.723,0.926,6.123,1.351  C74.889,28.282,72.916,28.758,70.166,29.208z"></path></svg>