<svg xmlns="http://www.w3.org/2000/svg" xmlns:xlink="http://www.w3.org/1999/xlink" version="1.1" x="0px" y="0px" viewBox="0 0 100 125" enable-background="new 0 0 100 100" xml:space="preserve"><g><path d="M71.024,56.426l-3.504-1.742v-8.333h-1.558V35.968h-0.004c0.002-0.065,0.005-0.128,0.005-0.192   c0-0.015-0.001-0.028-0.001-0.042h1.698v-3.114h-2.023c-1.303-6.3-6.425-11.201-12.84-12.17v-2.379   c0.001-0.005,0.001-0.012,0.001-0.018c0-0.001-0.001-0.003-0.001-0.004v-0.011h-0.001c-0.006-1.034-0.664-1.895-1.557-2.16   l-0.425-5.575h0.001l-0.425,5.514c-1.033,0.149-1.833,1.08-1.838,2.221h-0.002v2.358C41.94,21.21,36.62,26.184,35.287,32.621   h-1.601v3.114h1.277c0,0.014-0.001,0.027-0.001,0.042c0,0.064,0.003,0.127,0.005,0.192h-0.005v10.383h-1.559v8.756l-2.655,1.318   H5.585v26.731h90.031V56.426H71.024z M64.616,44.723v1.699H36.375v-1.699H64.616z M41.259,43.213v-4.648h2.973v4.648H41.259z    M46.355,43.213v-4.648h2.972v4.648H46.355z M51.451,43.213v-4.648h2.973v4.648H51.451z M56.549,43.213v-4.648h2.971v4.648H56.549z    M61.645,43.213v-4.648h2.972v4.648H61.645z M36.375,35.38h28.241v1.7H36.375V35.38z M36.163,38.564h2.973v4.648h-2.973V38.564z    M51.026,49.819l14.864,6.37H34.888L51.026,49.819z M16.229,77h-3.636v-6.322h3.636V77z M16.229,69.097h-3.636v-6.324h3.636V69.097   z M21.208,77h-3.637v-6.322h3.637V77z M21.208,69.097h-3.637v-6.324h3.637V69.097z M26.188,77h-3.636v-6.322h3.636V77z    M26.188,69.097h-3.636v-6.324h3.636V69.097z M78.021,77h-3.636v-6.322h3.636V77z M78.021,69.097h-3.636v-6.324h3.636V69.097z    M83,77h-3.636v-6.322H83V77z M83,69.097h-3.636v-6.324H83V69.097z M87.979,77h-3.636v-6.322h3.636V77z M87.979,69.097h-3.636   v-6.324h3.636V69.097z M70.607,81.643H30.713v-2.521h39.895V81.643z M32.478,78.064V61.699h3.682v16.365H32.478z M38.649,78.064   V61.699h2.756v16.365H38.649z M43.798,78.064V61.699h2.757v16.365H43.798z M49.224,78.064V61.699h2.756v16.365H49.224z    M54.745,78.064V61.699h2.756v16.365H54.745z M60.097,78.064V61.699h2.756v16.365H60.097z M65.264,78.064V61.699h3.445v16.365   H65.264z M70.607,60.833H30.713v-2.52h39.895V60.833z"/><polygon points="51.546,46.712 51.477,46.712 51.917,46.931  "/></g><text x="0" y="115" fill="#000000" font-size="5px" font-weight="bold" font-family="'Helvetica Neue', Helvetica, Arial-Unicode, Arial, Sans-serif">Created by Kelcey Hurst</text><text x="0" y="120" fill="#000000" font-size="5px" font-weight="bold" font-family="'Helvetica Neue', Helvetica, Arial-Unicode, Arial, Sans-serif">from the Noun Project</text></svg>