<svg xmlns="http://www.w3.org/2000/svg" xmlns:xlink="http://www.w3.org/1999/xlink" version="1.1" x="0px" y="0px" viewBox="0 0 100 100" enable-background="new 0 0 100 100" xml:space="preserve"><g><polygon points="9.007,62.299 9.007,47.49 2.804,47.49 2.804,50.671 5.226,50.671 5.226,62.299  "></polygon><polygon points="27.707,50.671 30.128,50.671 30.128,62.299 33.91,62.299 33.91,47.49 27.707,47.49  "></polygon><polygon points="16.171,68.307 18.592,68.307 18.592,79.933 22.374,79.933 22.374,65.123 16.171,65.123  "></polygon><polygon points="16.171,85.554 18.592,85.554 18.592,97.18 22.374,97.18 22.374,82.37 16.171,82.37  "></polygon><polygon points="27.707,68.307 30.128,68.307 30.128,79.933 33.91,79.933 33.91,65.123 27.707,65.123  "></polygon><path d="M21.594,47.688c-0.701-0.3-1.5-0.48-2.262-0.48c-0.76,0-1.52,0.161-2.241,0.442c-2.241,0.899-3.342,2.799-3.342,5.182   v4.121c0,2.363,1.121,4.244,3.322,5.164c0.72,0.302,1.48,0.46,2.261,0.46c0.841,0,1.681-0.182,2.441-0.539   c2.082-0.96,3.022-2.863,3.022-5.085v-4.121C24.795,50.511,23.755,48.63,21.594,47.688z M21.013,57.056   c0,1.159-0.38,2.198-1.741,2.198c-1.301,0-1.741-1.06-1.741-2.198v-4.323c0-1.122,0.44-2.202,1.741-2.202   c1.361,0,1.741,1.04,1.741,2.202V57.056z"></path><polygon points="89.854,68.307 92.277,68.307 92.277,79.933 96.059,79.933 96.059,65.123 89.854,65.123  "></polygon><polygon points="89.854,85.554 92.277,85.554 92.277,97.18 96.059,97.18 96.059,82.37 89.854,82.37  "></polygon><path d="M95.278,47.688c-0.7-0.3-1.501-0.48-2.261-0.48s-1.521,0.161-2.242,0.442c-2.241,0.899-3.341,2.799-3.341,5.182v4.121   c0,2.363,1.121,4.244,3.322,5.164c0.72,0.302,1.479,0.46,2.261,0.46c0.84,0,1.68-0.182,2.441-0.539   c2.082-0.96,3.021-2.863,3.021-5.085v-4.121C98.479,50.511,97.438,48.63,95.278,47.688z M94.697,57.056   c0,1.159-0.38,2.198-1.741,2.198c-1.301,0-1.739-1.06-1.739-2.198v-4.323c0-1.122,0.438-2.202,1.739-2.202   c1.361,0,1.741,1.04,1.741,2.202V57.056z"></path><polygon points="73.262,79.933 73.262,65.123 67.06,65.123 67.06,68.307 69.48,68.307 69.48,79.933  "></polygon><polygon points="78.595,68.307 81.016,68.307 81.016,79.933 84.799,79.933 84.799,65.123 78.595,65.123  "></polygon><path d="M72.482,82.571c-0.701-0.298-1.5-0.479-2.261-0.479c-0.762,0-1.522,0.159-2.241,0.44c-2.241,0.9-3.344,2.801-3.344,5.181   v4.124c0,2.36,1.122,4.244,3.323,5.164c0.719,0.299,1.48,0.46,2.262,0.46c0.841,0,1.68-0.182,2.439-0.542   c2.082-0.96,3.022-2.86,3.022-5.082v-4.124C75.684,85.393,74.644,83.515,72.482,82.571z M71.901,91.937   c0,1.162-0.379,2.201-1.741,2.201c-1.3,0-1.739-1.06-1.739-2.201v-4.32c0-1.122,0.439-2.204,1.739-2.204   c1.362,0,1.741,1.043,1.741,2.204V91.937z"></path><path d="M8.228,65.324c-0.701-0.301-1.501-0.479-2.263-0.479c-0.76,0-1.52,0.158-2.239,0.439c-2.242,0.9-3.343,2.801-3.343,5.185   v4.121c0,2.36,1.121,4.241,3.322,5.164c0.721,0.298,1.481,0.457,2.26,0.457c0.842,0,1.682-0.179,2.441-0.539   c2.082-0.961,3.022-2.86,3.022-5.082v-4.121C11.429,68.145,10.388,66.265,8.228,65.324z M7.646,74.689   c0,1.162-0.38,2.201-1.741,2.201c-1.3,0-1.74-1.062-1.74-2.201v-4.323c0-1.119,0.44-2.198,1.74-2.198   c1.361,0,1.741,1.039,1.741,2.198V74.689z"></path><polygon points="46.418,62.299 46.418,47.49 40.215,47.49 40.215,50.671 42.637,50.671 42.637,62.299  "></polygon><polygon points="53.582,68.307 56.004,68.307 56.004,79.933 59.785,79.933 59.785,65.123 53.582,65.123  "></polygon><polygon points="53.582,85.554 56.004,85.554 56.004,97.18 59.785,97.18 59.785,82.37 53.582,82.37  "></polygon><path d="M45.639,65.324c-0.702-0.301-1.501-0.479-2.263-0.479c-0.76,0-1.52,0.158-2.24,0.439c-2.242,0.9-3.342,2.801-3.342,5.185   v4.121c0,2.36,1.121,4.241,3.322,5.164c0.721,0.298,1.481,0.457,2.26,0.457c0.842,0,1.682-0.179,2.441-0.539   c2.082-0.961,3.022-2.86,3.022-5.082v-4.121C48.84,68.145,47.799,66.265,45.639,65.324z M45.058,74.689   c0,1.162-0.38,2.201-1.741,2.201c-1.3,0-1.74-1.062-1.74-2.201v-4.323c0-1.119,0.44-2.198,1.74-2.198   c1.361,0,1.741,1.039,1.741,2.198V74.689z"></path><path d="M81.751,44.757l1.139,0.001l11.635,0.021l0.425-0.427c2.887-3.004,4.668-7.079,4.668-11.563   c0-8.235-5.993-15.094-13.842-16.455c-0.017-0.003-0.033-0.006-0.051-0.007C84.337,8.503,77.496,2.539,69.281,2.539   c-7.739,0-14.262,5.292-16.151,12.447c-2.866-2.308-6.503-3.694-10.459-3.694c-8.319,0-15.236,6.114-16.499,14.085   c-2.616-1.703-5.735-2.697-9.083-2.697c-9.211,0-16.706,7.495-16.706,16.705c0,1.814,0.294,3.562,0.832,5.197L1.216,44.6h0.006   l5.785,0.01l20.144,0.04l5.785,0.011l7.922,0.017l0.911,0.001c0.298,0.016,0.6,0.024,0.902,0.024v-0.024l1.811,0.004   c0.014-0.003,0.029-0.004,0.044-0.006l6.111,0.016c0.559,1.433,1.316,2.764,2.228,3.975c-1.134,1.021-1.704,2.466-1.704,4.164   v4.121c0,2.363,1.121,4.244,3.322,5.164c0.72,0.302,1.479,0.46,2.261,0.46c0.841,0,1.682-0.182,2.441-0.539   c2.081-0.96,3.021-2.863,3.021-5.085v-2.088c0.79,0.195,1.602,0.33,2.431,0.408v1.68c0,2.363,1.122,4.244,3.323,5.164   c0.719,0.302,1.48,0.46,2.262,0.46c0.841,0,1.68-0.182,2.439-0.539c2.082-0.96,3.022-2.863,3.022-5.085v-4.558   c0.747-0.517,1.445-1.097,2.098-1.725h3.234v11.628h3.783V47.49h-4.441C80.898,46.626,81.373,45.717,81.751,44.757z M30.471,39.438   l-2.021-0.003L5.729,39.39c0-0.001,0-0.004,0-0.007c0-6.265,5.097-11.362,11.361-11.362c4.293,0,8.036,2.396,9.967,5.916   c-0.009-0.025-0.018-0.051-0.026-0.078c0.786,2.09,1.981,3.982,3.487,5.58H30.471z M58.425,57.056c0,1.159-0.381,2.198-1.741,2.198   c-1.301,0-1.741-1.06-1.741-2.198v-4.323c0-0.536,0.104-1.059,0.352-1.463c0.956,0.828,2.005,1.55,3.131,2.146V57.056z    M71.901,57.056c0,1.159-0.379,2.198-1.741,2.198c-1.3,0-1.739-1.06-1.739-2.198v-1.858c1.206-0.16,2.37-0.451,3.48-0.855V57.056z    M66.208,50.005c-5.985,0-10.896-4.647-11.328-10.521c0,0,0,0,0-0.003c-0.003-0.021-0.006-0.04-0.006-0.061l-5.354-0.011   c0.001,0.02,0.003,0.042,0.005,0.064l-7.441-0.017c-5.993-0.312-10.774-5.396-10.774-11.464   c0.001-6.259,5.097-11.354,11.363-11.354c6.265,0,11.361,5.094,11.361,11.36h5.345c0-0.312-0.012-0.621-0.027-0.927   c-0.005-0.088-0.016-0.178-0.021-0.264c-0.016-0.223-0.033-0.446-0.059-0.667c-0.01-0.083-0.021-0.163-0.031-0.244   c-0.031-0.243-0.064-0.483-0.105-0.721c-0.007-0.042-0.014-0.083-0.02-0.124c-0.153-0.833-0.362-1.647-0.632-2.436l-0.559-3.372   c0-6.265,5.095-11.362,11.36-11.362c5.282,0,9.73,3.623,11,8.514c0.015-0.003,0.032-0.005,0.05-0.007   c0.22,0.877,0.338,1.798,0.338,2.745c0,0.886-0.105,1.751-0.3,2.579c0.815-0.185,1.668-0.288,2.542-0.288   c0.997,0,1.966,0.13,2.887,0.374c4.871,1.281,8.473,5.721,8.473,10.987c0,2.534-0.835,4.877-2.244,6.77l-14.512-0.018   c0.004,0.011,0.012,0.022,0.015,0.033c-0.092,1.238-0.378,2.34-0.837,3.437C74.983,47.11,70.926,50.005,66.208,50.005z"></path></g></svg>