<svg xmlns="http://www.w3.org/2000/svg" xmlns:xlink="http://www.w3.org/1999/xlink" version="1.1" x="0px" y="0px" viewBox="0 0 100 116.81875" enable-background="new 0 0 100 93.455" xml:space="preserve"><path fill="#000000" d="M76.992,16.859v36.412H23.043V16.859H76.992 M82.384,10.789h-5.393H23.043h-5.395v6.07v36.412v6.072h5.395  h53.948h5.393v-6.072V16.859V10.789L82.384,10.789z"/><path fill="#000000" d="M98.408,75.448l-5.236-6.568c-0.545-0.684-1.22-1.299-1.97-1.847c1.212-1.532,1.973-3.495,1.973-5.667V8.767  c0-4.834-3.63-8.767-8.093-8.767H14.951c-4.462,0-8.091,3.933-8.091,8.767v52.599c0,2.172,0.759,4.135,1.97,5.667  c-0.747,0.548-1.428,1.163-1.97,1.847l-5.237,6.568c-1.105,1.39-1.602,2.966-1.591,4.52H0c0,0,0,11.7,0,12.08  c0,1.181,0.243,1.407,1.296,1.407c0.38,0,96.853,0,97.314,0c1.181,0,1.351-0.394,1.351-1.616c0-0.464,0.039-11.871,0.039-11.871  C100.008,78.414,99.516,76.837,98.408,75.448z M12.254,8.767c0-1.608,1.211-2.924,2.696-2.924h70.131  c1.482,0,2.697,1.316,2.697,2.924v52.599c0,1.604-1.215,2.921-2.697,2.921H14.951c-1.485,0-2.696-1.316-2.696-2.921V8.767z   M5.842,78.811l5.237-6.568c0.922-1.16,2.892-2.11,4.378-2.11h69.12c1.481,0,3.451,0.95,4.379,2.11l5.236,6.568  c0.923,1.161,0.464,2.11-1.018,2.11H6.859C5.374,80.921,4.915,79.972,5.842,78.811z M94.923,88.958H5.273v-2.84  c0.511,0.101,1.03,0.197,1.586,0.197h86.315c0.61,0,1.191-0.092,1.749-0.22V88.958z"/><path fill="#000000" d="M82.833,78.336H17.197c-1.488,0-2.696-1.209-2.696-2.699c0-1.488,1.208-2.695,2.696-2.695h65.636  c1.492,0,2.697,1.207,2.697,2.695C85.531,77.127,84.326,78.336,82.833,78.336z"/><g><path fill="#000000" d="M36.278,25.849h5.22l6.313,17.337h-5.536l-0.729-2.476h-5.512l-0.777,2.476H29.89L36.278,25.849z    M40.479,36.994l-1.554-5.342h-0.048l-1.675,5.342H40.479z"/><path fill="#000000" d="M61.212,40.37c0,0.947,0.049,2.016,0.583,2.816h-4.904c-0.123-0.339-0.196-0.849-0.172-1.188h-0.048   c-1.021,1.165-2.502,1.504-4.057,1.504c-2.429,0-4.442-1.166-4.442-3.812c0-3.982,4.66-3.837,7.113-4.298   c0.655-0.122,1.312-0.316,1.312-1.119c0-0.85-0.802-1.165-1.578-1.165c-1.481,0-1.771,0.753-1.796,1.289h-4.469   c0.145-3.546,3.497-4.128,6.482-4.128c6.023,0,5.975,2.499,5.975,4.93V40.37z M56.598,37.527c-0.582,0.292-1.237,0.461-1.893,0.609   c-1.07,0.242-1.629,0.508-1.629,1.36c0,0.583,0.631,1.166,1.506,1.166c1.091,0,1.943-0.655,2.016-1.968V37.527z"/></g><text x="0" y="108.455" fill="#000000" font-size="5px" font-weight="bold" font-family="'Helvetica Neue', Helvetica, Arial-Unicode, Arial, Sans-serif">Created by Hedie Assadi Joulaee</text><text x="0" y="113.455" fill="#000000" font-size="5px" font-weight="bold" font-family="'Helvetica Neue', Helvetica, Arial-Unicode, Arial, Sans-serif">from the Noun Project</text></svg>