<svg xmlns="http://www.w3.org/2000/svg" xmlns:xlink="http://www.w3.org/1999/xlink" version="1.1" x="0px" y="0px" viewBox="0 0 100 125" enable-background="new 0 0 100 100" xml:space="preserve"><path fill="#000000" d="M76.226,50.931h11.59L69.109,38.188L51.681,26.304v-7.773c0.771,0.351,1.671,0.733,2.855,1.178  c5.541,2.076,17.05-1.341,17.05-1.341l-0.77-12.615c0,0-2.871,1.122-8.81,1.695C56.071,8.024,48.407,4,48.407,4v3.268v9.116v10.42  L31.703,38.188L13,50.931h11.539v30.45h-6.655v9.426h63.976v-9.426h-5.634V50.931z M67.25,81.381h-5.262v-30.45h5.262V81.381z   M53.013,81.381h-5.262v-30.45h2.658h2.604V81.381z M33.513,50.931h5.262v30.45h-5.262V50.931z"/><text x="0" y="115" fill="#000000" font-size="5px" font-weight="bold" font-family="'Helvetica Neue', Helvetica, Arial-Unicode, Arial, Sans-serif">Created by Rémy Médard</text><text x="0" y="120" fill="#000000" font-size="5px" font-weight="bold" font-family="'Helvetica Neue', Helvetica, Arial-Unicode, Arial, Sans-serif">from the Noun Project</text></svg>