<svg xmlns="http://www.w3.org/2000/svg" xmlns:xlink="http://www.w3.org/1999/xlink" version="1.1" x="0px" y="0px" viewBox="0 0 100 100" enable-background="new 0 0 100 100" xml:space="preserve"><path fill="#000000" d="M80.088,47.368c-0.003-0.018-0.005-0.035-0.009-0.052c-0.012-0.078-0.028-0.154-0.048-0.23  c-0.005-0.013-0.007-0.027-0.011-0.04c-0.025-0.083-0.057-0.167-0.093-0.25c-0.007-0.017-0.016-0.032-0.023-0.048  c-0.02-0.042-0.038-0.082-0.061-0.122c-0.013-0.023-0.027-0.042-0.04-0.066c-0.012-0.021-0.025-0.042-0.039-0.062  c-0.046-0.069-0.09-0.134-0.143-0.196c-0.005-0.005-0.008-0.01-0.012-0.014c-0.059-0.07-0.122-0.134-0.188-0.195  c-0.014-0.011-0.026-0.021-0.04-0.033c-0.059-0.051-0.12-0.098-0.183-0.142c-0.013-0.008-0.025-0.019-0.038-0.027  c-0.075-0.049-0.153-0.093-0.232-0.132c-0.006-0.002-0.01-0.006-0.015-0.009L52.134,32.887v-3.093h10.414v4.235h13.8l-6.898-8.522  l6.898-8.522h-13.8V12.75H52.134v-2.502c1.844-0.819,3.142-2.662,3.142-4.817c0-2.906-2.365-5.268-5.27-5.268  c-2.918,0-5.281,2.362-5.281,5.268c0,2.152,1.294,3.994,3.139,4.817v22.641L21.086,45.749c-0.005,0.002-0.008,0.005-0.013,0.008  c-0.082,0.039-0.161,0.084-0.237,0.134c-0.012,0.008-0.022,0.017-0.034,0.024c-0.064,0.044-0.127,0.093-0.187,0.145  c-0.013,0.012-0.025,0.022-0.037,0.033c-0.066,0.061-0.129,0.125-0.188,0.194c-0.005,0.006-0.009,0.011-0.014,0.017  c-0.05,0.061-0.097,0.125-0.141,0.193c-0.014,0.022-0.027,0.043-0.041,0.065c-0.013,0.021-0.028,0.041-0.04,0.064  c-0.021,0.038-0.04,0.078-0.058,0.118c-0.009,0.018-0.018,0.035-0.026,0.053c-0.036,0.081-0.066,0.164-0.091,0.248  c-0.004,0.014-0.007,0.03-0.012,0.044c-0.021,0.075-0.037,0.15-0.049,0.226c-0.002,0.018-0.005,0.036-0.008,0.055  c-0.012,0.09-0.019,0.181-0.019,0.271c0,0.002,0,0.003,0,0.005v34.596c0,0.765,0.415,1.469,1.084,1.84L48.979,99.61  c0.001,0.001,0.002,0.001,0.002,0.003c0.073,0.041,0.151,0.078,0.23,0.107c0.013,0.006,0.026,0.011,0.04,0.016  c0.064,0.024,0.128,0.045,0.194,0.063c0.021,0.007,0.042,0.012,0.062,0.015c0.061,0.015,0.123,0.026,0.185,0.037  c0.021,0.002,0.042,0.006,0.062,0.009c0.082,0.009,0.162,0.016,0.245,0.016s0.165-0.007,0.245-0.016  c0.021-0.003,0.042-0.007,0.062-0.009c0.063-0.011,0.125-0.022,0.185-0.037c0.021-0.003,0.042-0.008,0.062-0.015  c0.065-0.019,0.131-0.039,0.194-0.063c0.012-0.005,0.026-0.01,0.039-0.016c0.08-0.029,0.156-0.066,0.23-0.107  c0.001-0.002,0.002-0.002,0.003-0.003l28.003-15.528c0.67-0.371,1.084-1.075,1.084-1.84V47.646c0-0.001,0-0.002,0-0.003  C80.107,47.551,80.101,47.46,80.088,47.368z M50,60.768l-23.42-12.987l21.284-10.222v8.437h0.003c0,0.008-0.001,0.013-0.001,0.02  c0,1.18,0.955,2.136,2.134,2.136c1.179,0,2.134-0.956,2.134-2.136c0-0.006-0.001-0.01-0.001-0.016h0.001v-8.443L73.42,47.781  L50,60.768z M24.102,51.22l23.793,13.193v29.784L24.102,81.002V51.22z M52.104,94.197V64.413L75.897,51.22v29.782L52.104,94.197z"></path></svg>