<svg xmlns="http://www.w3.org/2000/svg" viewBox="0 0 88 100">
  <path d="M0 32v59.906C0 96.376 3.582 100 8 100h72c4.418 0 8-3.623 8-8.094V32H0zm22 62H6V78h16v16zm0-20H6V58h16v16zm0-20H6V38h16v16zm20 40H26V78h16v16zm0-20H26V58h16v16zm0-20H26V38h16v16zm20 40H46V78h16v16zm0-20H46V58h16v16zm0-20H46V38h16v16zm20 40H66V78h16v16zm0-20H66V58h16v16zm0-20H66V38h16v16zM80 12H67V3c0-1.657-1.344-3-3-3-1.657 0-3 1.343-3 3v9H27V3c0-1.657-1.344-3-3-3-1.657 0-3 1.343-3 3v9H8c-4.418 0-8 3.623-8 8.093V28h88v-7.907C88 15.623 84.418 12 80 12zM24 26c-3.313 0-6-2.687-6-6 0-2.22 1.21-4.152 3-5.19V20c0 1.657 1.343 3 3 3 1.656 0 3-1.343 3-3v-5.19c1.792 1.037 3 2.97 3 5.19 0 3.313-2.686 6-6 6zm40 0c-3.313 0-6-2.687-6-6 0-2.22 1.21-4.152 3-5.19V20c0 1.657 1.343 3 3 3 1.656 0 3-1.343 3-3v-5.19c1.792 1.037 3 2.97 3 5.19 0 3.313-2.686 6-6 6z"/>
  <text style="display:none;" y="115" font-size="5" font-weight="bold" font-family="'Helvetica Neue', Helvetica, Arial-Unicode, Arial, Sans-serif">Created by Edward Boatman</text>
  <text style="display:none;" y="120" font-size="5" font-weight="bold" font-family="'Helvetica Neue', Helvetica, Arial-Unicode, Arial, Sans-serif">from the Noun Project</text>
</svg>
