<svg xmlns="http://www.w3.org/2000/svg" viewBox="6.534 0.025 87.127 100">
  <path d="M93.66 100.025H6.535l4.32-7.636h77.398M84.768 87.476l2.21 3.118h-10.59L49.115 79.29 24.727 89.315l.005.005-3.1 1.273h-9.766l1.826-3.225 7.487-.366V70.464c5.552-4.562 20.44-6.608 27.79-6.52v.023l.414-.017h.048l.425.017v-.022c6.792-.084 20.89 1.784 26.99 5.925l.137 17.288 7.784.318zm-12.274-5.51v-9.427c0-.32-.154-.605-.418-.814-.253-.21-.61-.336-1.006-.336-.785 0-1.418.516-1.418 1.15v9.425c0 .318.16.604.41.813.26.204.612.334 1.008.334.79 0 1.424-.513 1.424-1.147zm-7.33-2.12v-10.2c0-.34-.16-.65-.413-.872-.255-.23-.61-.365-1.004-.365-.79 0-1.426.557-1.426 1.237v10.2c0 .347.156.657.42.878.25.23.61.365 1.006.365.78.002 1.417-.556 1.417-1.243zM57.83 78.25V68.052c0-.34-.155-.654-.418-.88-.25-.228-.61-.365-1.005-.365-.785 0-1.42.557-1.42 1.246V78.25c0 .34.16.65.412.872.257.23.61.366 1.006.366.79 0 1.424-.558 1.424-1.24zm-7.33-.807V67.7c0-.327-.162-.628-.413-.844-.258-.216-.612-.348-1.006-.348-.79 0-1.423.534-1.423 1.19v9.744c0 .32.156.62.42.837.25.216.61.348 1.005.348.782 0 1.417-.533 1.417-1.184zm-7.33.958v-10.2c0-.347-.156-.657-.42-.877-.25-.228-.61-.364-1.005-.364-.784 0-1.418.556-1.418 1.244v10.2c0 .34.16.65.412.872.258.23.61.366 1.005.366.79 0 1.424-.558 1.424-1.24zm-7.332 1.45v-10.2c0-.342-.162-.652-.414-.874-.257-.23-.61-.365-1.005-.365-.79 0-1.423.557-1.423 1.237v10.2c0 .347.155.657.42.878.25.23.608.365 1.004.365.786.002 1.42-.556 1.42-1.243zm-7.33 2.117V72.54c0-.32-.158-.605-.42-.814-.25-.21-.61-.336-1.005-.336-.784 0-1.418.516-1.418 1.15v9.425c0 .318.16.604.413.813.257.204.61.334 1.005.334.79 0 1.424-.513 1.424-1.147z"/>
  <path d="M79.27 66.278c.497 1.467.322 2.664.112 3.327-.33-.316-.7-.627-1.113-.93-6.612-4.856-22.244-6.675-28.84-6.52h-.047C42.25 62 25.75 63.997 19.717 69.347c0 0-.774-1.487-.162-3.064 1.173-1.022 2.824-1.99 4.925-2.884 7.41-3.155 18.94-4.64 24.662-4.53v.01c.078-.005.156-.005.258-.005h.036c.09 0 .167 0 .245.006v-.01c4.788-.09 14.675.963 22.38 3.652 3.204 1.12 5.634 2.382 7.21 3.756zM74.296 53.28c-5.02-5.613-18.856-8.07-25.476-7.87h-.023c-6.08-.173-20.223 2.006-25.44 7.848-.007.012-.02.016-.025.028-.35-2.78.7-4.14.7-4.14 1.36-1.32 3.292-2.527 5.756-3.61 6.512-2.85 14.788-3.974 18.81-3.878v.02c.065-.007.125-.013.215-.013h.03c.065 0 .125.006.186.012v-.02c3.943-.094 12.183 1.006 18.7 3.83 2.872 1.247 5.033 2.665 6.408 4.213.537 1.48.277 3.017.158 3.58z"/>
  <path d="M73.098 54.64v6.344c-.15-.056-.298-.107-.45-.16-1.71-.6-3.53-1.114-5.372-1.563.012-.03.02-.06.02-.096v-5.027c0-.34-.503-.61-1.12-.61-.622 0-1.125.27-1.125.61v4.627c-1.203-.25-2.406-.473-3.585-.658.025-.048.037-.097.037-.15v-5.47c0-.364-.502-.665-1.12-.665-.62 0-1.124.302-1.124.666v5.29c-1.233-.173-2.43-.31-3.562-.42.012-.035.02-.07.02-.106v-5.82c0-.397-.503-.716-1.127-.716-.616 0-1.12.32-1.12.715v5.755c-1.35-.085-2.555-.12-3.56-.106.01-.033.01-.064.01-.094v-6.05c0-.408-.5-.736-1.118-.736-.622 0-1.126.328-1.126.735v6.05c0 .03.006.067.02.098-1.066.018-2.263.084-3.562.187v-5.756c0-.396-.502-.714-1.126-.714-.622 0-1.124.318-1.124.714v5.828c0 .046.005.09.023.138-1.143.125-2.34.28-3.566.466V52.49c0-.366-.502-.665-1.124-.665-.616 0-1.12.3-1.12.664v5.47c0 .12.056.233.157.327-1.233.215-2.47.468-3.704.742v-4.89c0-.342-.503-.61-1.12-.61-.622 0-1.125.27-1.125.61v5.026c0 .133.078.258.216.354-1.95.502-3.847 1.096-5.6 1.77v-7.07c4.72-4.912 17.36-7.12 23.53-7.017v.02c.097-.007.193-.013.312-.013h.066l.36.018v-.023c6.36-.1 19.566 2.282 23.91 7.436zM71.674 90.594H26.36l22.688-9.336M53.05 24.1c6.362 2.3 11.378 9.23 13.88 19.122-6.026-2.292-13.67-3.496-18.032-3.35H48.814c-3.777-.127-11.616.85-18.21 3.398 2.214-10.162 7.463-17.36 14.225-19.402 2.696-.82 5.54-.736 8.22.233zM52.602 13.73v8.343c-2.363-.67-4.81-.744-7.187-.216v-7.905c.496-.45 1.024-.796 1.568-1.024 1.203-.52 2.52-.54 3.92-.053.718.25 1.305.59 1.7.855zM48.838.025c.39.946 1.12 3.722 1.34 11.42-.903-.168-1.79-.158-2.628.046-.047-6.318.708-10.16 1.288-11.465z"/>
  <text style="display:none;" x="6.534" y="115.025" font-size="5" font-weight="bold" font-family="'Helvetica Neue', Helvetica, Arial-Unicode, Arial, Sans-serif">Created by Martha Ormiston</text>
  <text style="display:none;" x="6.534" y="120.025" font-size="5" font-weight="bold" font-family="'Helvetica Neue', Helvetica, Arial-Unicode, Arial, Sans-serif">from the Noun Project</text>
</svg>
