<svg xmlns="http://www.w3.org/2000/svg" xmlns:xlink="http://www.w3.org/1999/xlink" version="1.1" x="0px" y="0px" viewBox="0 0 60 60" enable-background="new 0 0 60 60" xml:space="preserve">
  <rect x="-14" y="-13" display="none" fill="#000000" width="198" height="87"/>
  <path d="M51.409,3.94H8.591c-2.556,0-4.629,2.073-4.629,4.629v42.529c0,2.556,2.073,4.629,4.629,4.629h42.818  c2.556,0,4.629-2.072,4.629-4.629V8.569C56.038,6.013,53.965,3.94,51.409,3.94z M17.616,47.929c-2.636,0-4.774-2.139-4.774-4.774  c0-2.638,2.138-4.774,4.774-4.774c2.635,0,4.774,2.136,4.774,4.774C22.39,45.791,20.251,47.929,17.616,47.929z M35.823,47.929h-4.9  c0.029-0.423,0.063-0.841,0.063-1.271c0-10.026-8.159-18.186-18.186-18.186h-0.002v-4.9h0.002c12.73,0,23.087,10.356,23.087,23.086  C35.886,47.089,35.845,47.505,35.823,47.929z M46.798,47.929h-4.64c0.28-1.553,0.45-3.142,0.45-4.774  c0-14.791-12.033-26.825-26.825-26.825c-1.01,0-2.004,0.068-2.986,0.176v-4.618c0.983-0.093,1.978-0.152,2.986-0.152  c17.323,0,31.418,14.095,31.418,31.418C47.201,44.783,47.038,46.367,46.798,47.929z"/>
  <text style="display:none;" x="0" y="75" fill="#000000" font-size="5px" font-weight="bold" font-family="'Helvetica Neue', Helvetica, Arial-Unicode, Arial, Sans-serif">Created by Alex Auda Samora</text>
  <text style="display:none;" x="0" y="80" fill="#000000" font-size="5px" font-weight="bold" font-family="'Helvetica Neue', Helvetica, Arial-Unicode, Arial, Sans-serif">from the Noun Project</text>
</svg>
