<?xml version="1.0" encoding="iso-8859-1"?>
<!-- Generator: Adobe Illustrator 19.2.1, SVG Export Plug-In . SVG Version: 6.00 Build 0)  -->
<svg version="1.1" id="Layer_1" xmlns="http://www.w3.org/2000/svg" xmlns:xlink="http://www.w3.org/1999/xlink" x="0px" y="0px"
	 viewBox="0 0 40 40" style="enable-background:new 0 0 40 40;" xml:space="preserve">
<g>
	<rect style="fill:none;" width="40" height="40"/>
	<path style="opacity:0.4;fill:#FFFFFF;enable-background:new    ;" d="M27.632,18.225C27.864,19.113,28,20.04,28,21
		c0,6.065-4.935,11-11,11S6,27.065,6,21s4.935-11,11-11c3.19,0,6.059,1.373,8.07,3.55l1.318-1.519C24.019,9.553,20.691,8,17,8
		C9.832,8,4,13.832,4,21s5.832,13,13,13s13-5.832,13-13c0-1.599-0.304-3.125-0.835-4.541L27.632,18.225z"/>
	
		<polyline style="fill:none;stroke:#FFFFFF;stroke-width:3;stroke-linecap:round;stroke-linejoin:round;stroke-miterlimit:10;" points="
		11.5,20.55 17.138,26.5 34.5,6.5 	"/>
</g>
<g id="Sprite_Names">
</g>
</svg>
